# xmcd CD database file
#
# Track frame offsets:
#	182
#	29925
#	47252
#	63205
#	76697
#	92665
#	107677
#	126457
#	138407
#	156282
#	175620
#	191060
#	211915
#	234257
#	246660
#
# Disc length: 3537 seconds
#
# Revision: 0
# Processed by: cddbd v1.5.2PL0 Copyright (c) Steve Scherf et al.
# Submitted via: CDex 1.70beta2
#
DISCID=ca0dcf0f
DTITLE=Sammy Price - Midnight Boogie
DYEAR=1900
DGENRE=Blues
TTITLE0=All Keys Boogie
TTITLE1=Midnight Boogie
TTITLE2=Back Beat Boogie
TTITLE3=Boogie Woogie Soul Train
TTITLE4=Pinetop's Boogie
TTITLE5=In The Evening
TTITLE6=Panassie Discovered Jazz Blues
TTITLE7=Goodbye Blues
TTITLE8=Lenox Avenue Blues
TTITLE9=F. Minor Blues
TTITLE10=Jeune Fille Boogie
TTITLE11=Le Train Est Parti Boogie
TTITLE12=Candy, Nancy Boogie
TTITLE13=Entendu Boogie
TTITLE14=Josette Boogie
EXTD=
EXTT0=
EXTT1=
EXTT2=
EXTT3=
EXTT4=
EXTT5=
EXTT6=
EXTT7=
EXTT8=
EXTT9=
EXTT10=
EXTT11=
EXTT12=
EXTT13=
EXTT14=
PLAYORDER=
